<svg width="591" height="436" viewBox="0 0 591 436" fill="none" xmlns="http://www.w3.org/2000/svg">
<path fill-rule="evenodd" clip-rule="evenodd" d="M446.398 2.43503C443.751 3.79419 441.961 6.57552 441.962 9.33116C441.964 11.8725 441.273 13.9509 440.424 13.9515C439.578 13.952 437.926 16.5863 436.754 19.804C434.952 24.7511 433.171 25.8811 425.223 27.1192C409.03 29.6427 406.589 32.5857 414.428 40.133L418.446 44.0005L412.363 50.7447C403.96 60.0623 401.757 64.9014 402.265 72.921C402.506 76.7135 401.432 81.3069 399.876 83.1287C398.321 84.9526 396.989 88.7399 396.916 91.5466C396.702 99.8402 395.7 103.019 392.129 106.718C388.292 110.693 387.869 113.2 390.729 115.025C394.235 117.262 392.763 120.965 384.78 129.987C378.583 136.992 377.352 139.585 378.853 142.481C379.892 144.489 380.266 146.63 379.679 147.236C378.078 148.897 386.466 151.206 388.76 149.739C389.88 149.022 390.745 150.524 390.737 153.177C390.726 157.711 383.696 162.998 377.676 163.002C376.336 163.003 367.417 167.04 357.851 171.972C337.204 182.618 309.106 195.683 306.677 195.766C305.728 195.799 299.648 199.477 293.161 203.94C286.677 208.404 280.346 212.056 279.093 212.057C277.84 212.058 276.351 213.896 275.785 216.141C274.556 221.015 264.522 222.038 264.519 217.29C264.516 212.346 262.707 211.753 238.425 208.756C230.891 207.825 227.713 208.498 221.824 212.268C213.568 217.554 197.614 220.812 194.16 217.918C192.699 216.694 191.383 216.81 190.532 218.239C189.562 219.864 188.479 219.865 186.585 218.242C184.868 216.769 183.558 216.705 182.752 218.056C182.078 219.184 180.213 219.587 178.605 218.949C176.999 218.313 174.458 218.846 172.959 220.135C170.879 221.924 169.543 221.76 167.3 219.442C165.685 217.774 163.852 216.94 163.226 217.59C161.74 219.13 130.302 232.465 128.662 232.25C123.996 231.641 119.952 233.14 116.436 236.782C110.156 243.287 95.7005 250.59 92.6254 248.812C91.1352 247.952 86.0646 247.977 81.3555 248.87C76.6485 249.766 71.1577 250.055 69.1568 249.515C66.9624 248.923 63.3114 250.668 59.9672 253.906C54.0043 259.683 47.0412 262.4 43.6877 260.259C42.5449 259.529 39.4346 261.366 36.7748 264.338C34.1131 267.312 30.9455 269.112 29.7336 268.339C28.5217 267.564 24.6289 267.497 21.0838 268.188C13.5182 269.66 12.3732 275.015 19.2443 276.795C21.9577 277.497 23.8491 279.513 23.8504 281.703C23.8517 283.746 25.2486 286.86 26.9543 288.625C28.6621 290.387 29.3279 291.858 28.4361 291.892C27.5463 291.927 28.3716 292.89 30.2704 294.034C32.1711 295.178 33.7449 297.216 33.7694 298.563C33.8816 304.544 41.1581 310.828 47.7419 310.629C51.3841 310.521 54.9321 311.378 55.6233 312.537C56.4311 313.886 58.2188 313.964 60.5994 312.754C62.6429 311.718 67.3431 309.29 71.0452 307.362C74.7474 305.433 78.2983 304.643 78.9362 305.606C79.5741 306.569 81.8733 307.514 84.0437 307.709C100.515 309.18 103.134 309.86 105.575 313.308C109.522 318.886 106.181 326.016 98.1385 329.175C95.7122 330.128 94.8018 331.96 95.4605 334.56C96.0202 336.77 95.0375 339.816 93.2234 341.491C89.5419 344.892 73.3977 349.822 71.6979 348.066C71.0819 347.427 68.9516 348.429 66.966 350.292C64.8067 352.316 63.3549 352.727 63.354 351.319C63.3519 347.955 54.4223 348.404 51.6129 351.91C50.3176 353.528 47.9821 354.346 46.425 353.731C44.8679 353.113 41.1613 354.293 38.1853 356.355C35.2112 358.417 32.3337 360.162 31.7912 360.233C25.4918 361.074 19.9553 363.95 19.9568 366.379C19.9579 368.043 18.7315 369.403 17.234 369.404C14.525 369.406 10.1022 383.334 10.1075 391.844C10.1089 394.206 7.89181 398.269 5.18052 400.871C2.46922 403.476 0.251518 406.617 0.252283 407.852C0.253869 410.413 11.1643 422.468 13.5122 422.503C14.3626 422.516 17.111 425.799 19.6173 429.796C22.795 434.862 24.8874 436.482 26.5262 435.144C30.7029 431.73 39.8257 431.02 42.6055 433.892C44.8305 436.191 46.1027 435.496 50.4417 429.602C55.4844 422.75 55.5237 422.469 51.9562 418.783C49.9424 416.702 46.8078 414.41 44.9922 413.69C43.1746 412.971 41.688 411.435 41.6872 410.276C41.6852 407.01 35.7824 407.799 34.51 411.238C33.8856 412.922 32.0377 414.301 30.4021 414.302C27.9891 414.304 27.6742 412.479 28.723 404.608C30.9618 387.803 33.3466 383.682 40.8303 383.677C44.4468 383.675 49.444 382.828 51.9352 381.794C61.6775 377.756 64.4412 376.907 66.6788 377.269C67.9555 377.476 69.2861 375.552 69.6357 372.997C70.0953 369.636 71.594 368.335 75.0527 368.3C77.6827 368.274 80.1976 367.125 80.6407 365.745C81.58 362.823 87.0371 362.32 87.0388 365.155C87.0395 366.212 86.0578 367.705 84.8567 368.473C83.3322 369.45 83.4808 370.448 85.3521 371.79C87.243 373.142 86.7716 373.342 83.7543 372.471C80.1865 371.44 79.6521 371.926 80.5342 375.402C81.7407 380.17 83.2858 380.601 86.6516 377.115C88.4913 375.209 89.0181 375.264 89.0194 377.362C89.0207 379.454 89.6482 379.523 91.8016 377.673C93.9944 375.787 95.1646 376.142 97.3468 379.361C99.3828 382.362 101.757 383.222 106.346 382.619C115.425 381.423 119.728 378.454 122.526 371.453C124.966 365.348 129.97 362.342 127.76 368.31C126.216 372.486 127.721 372.154 132.42 367.287C136.748 362.803 144.195 361.91 147.636 365.466C150.395 368.316 154.296 366.033 152.934 362.368C152.375 360.866 153.301 359.085 154.991 358.413C156.893 357.656 158.063 358.309 158.065 360.125C158.066 361.901 159.24 362.592 161.041 361.877C164.538 360.484 177.799 366.515 177.801 369.5C177.802 371.543 189.329 376.692 192.065 375.871C192.856 375.634 194.827 378.088 196.447 381.322L199.392 387.205L207.554 383.019C212.069 380.706 222.459 378.129 230.797 377.256C254.971 374.725 260.357 372.097 259.715 363.148C259.488 359.978 257.57 357.42 254.407 356.063C251.683 354.897 249.827 352.794 250.286 351.389C250.743 349.984 250.105 348.838 248.864 348.838C247.625 348.839 247.21 347.835 247.943 346.606C248.676 345.377 251.324 344.775 253.828 345.269C256.965 345.888 258.656 345.068 259.27 342.626C259.915 340.068 258.999 339.12 255.967 339.203C253.658 339.268 250.478 338.935 248.899 338.467C247.32 337.996 245.878 338.763 245.694 340.165C245.511 341.57 245.25 343.691 245.115 344.879C244.822 347.459 240.922 345.357 240.921 342.618C240.918 338.668 253.51 328.46 259.925 327.21C263.598 326.496 267.09 325.095 267.683 324.101C269.473 321.101 276.462 322.058 277.732 325.476C278.456 327.423 277.279 329.857 274.714 331.716C272.402 333.395 270.506 336.322 270.499 338.224C270.495 340.124 268.795 344.345 266.721 347.602C263.999 351.882 263.421 354.795 264.642 358.109C265.571 360.632 265.847 363.195 265.257 363.808C264.668 364.419 267.35 366.285 271.218 367.954C276.671 370.308 283.038 370.71 299.548 369.75C311.261 369.068 323.287 368.436 326.27 368.344C329.253 368.25 331.695 367.587 331.695 366.867C331.693 364.113 347.862 363.655 384.841 365.358C413.47 366.676 424.348 367.908 427.757 370.214C432.794 373.626 433.679 371.378 429.851 364.887C427.724 361.279 427.996 360.181 431.819 356.933C434.261 354.86 436.256 351.876 436.255 350.302C436.253 347.385 446.424 338.501 449.768 338.499C450.78 338.498 452.119 337.12 452.744 335.435C454.032 331.952 449.934 331.275 446.856 334.464C443.168 338.283 435.865 329.29 434.805 319.626C433.817 310.598 438.383 295.078 441.724 296.119C443.746 296.75 467.775 272.25 467.773 269.557C467.772 267.404 481.718 256.844 491.223 251.799C494.902 249.848 510.879 243.883 526.729 238.545C556.076 228.66 581.537 214.591 586.113 205.734C587.587 202.877 586.999 196.403 583.937 181.832C581.234 168.972 580.131 158.398 580.839 152.169C581.758 144.092 581.328 142.155 578.247 140.452C572.97 137.533 571.164 127.059 574.972 121.453C576.658 118.972 580.728 113.005 584.016 108.191C591.024 97.9336 591.796 90.2458 586.012 88.3493C583.826 87.6343 582.55 86.1879 583.177 85.1362C583.806 84.0846 580.099 81.358 574.944 79.0752C567.15 75.6246 564.641 75.3241 560.056 77.2908C556.772 78.7014 552.337 79.0187 549.079 78.0758C546.074 77.2062 542.413 76.7085 540.945 76.9687C539.478 77.2269 534.736 75.9767 530.406 74.1874C525.525 72.1719 520.067 71.4162 516.037 72.2027C512.172 72.9544 508.998 72.5666 508.208 71.2444C507.475 70.0202 505.095 69.0215 502.917 69.023C500.74 69.0244 497.018 67.9246 494.646 66.577C492.276 65.2293 488.579 63.8274 486.43 63.4614C484.284 63.0954 481.665 61.905 480.608 60.8137C479.554 59.7244 476.985 58.8341 474.899 58.8354C472.034 58.8373 471.62 58.1946 473.205 56.2177C474.36 54.7758 475.331 49.0332 475.361 43.4586C475.391 37.882 475.459 29.8763 475.51 25.6652C475.565 21.2704 474.653 18.0112 473.372 18.0121C472.145 18.0129 471.602 16.7701 472.163 15.2511C473.432 11.8271 466.878 5.76906 461.909 5.77235C459.885 5.77369 457.122 4.3977 455.77 2.71459C453.003 -0.729158 452.587 -0.74113 446.398 2.43503ZM134.3 382.723C130.702 387.214 133.625 392.485 138.87 390.96C141.299 390.255 147.091 389.099 151.741 388.392C160.739 387.023 161.789 384.087 154.305 381.228C150.654 379.832 149.976 380.098 150.893 382.565C152.304 386.359 151.745 386.371 143.334 382.744C137.546 380.245 136.287 380.242 134.3 382.723ZM186.687 381.539C183.4 383.003 183.831 383.319 189.27 383.436C193.149 383.517 195.304 382.746 194.579 381.534C193.157 379.155 192.038 379.156 186.687 381.539ZM92.1971 391.869C90.1445 394.016 87.7027 395.285 86.773 394.692C85.8433 394.098 85.084 394.523 85.0847 395.638C85.0854 396.75 83.1666 398.293 80.8191 399.066C77.0396 400.309 76.9274 400.685 79.8347 402.367C81.6406 403.411 83.1182 406.158 83.1196 408.47C83.1221 412.526 83.2563 412.508 86.8384 407.923C90.0164 403.859 91.0165 403.562 93.725 405.885C95.7879 407.653 99.1403 408.129 103.325 407.246C106.86 406.501 111.973 405.548 114.686 405.13C117.399 404.712 120.062 404.257 120.604 404.12C121.147 403.985 118.064 402.056 113.751 399.834C109.439 397.612 105.165 394.418 104.253 392.735C103.342 391.051 101.763 390.207 100.746 390.859C99.7259 391.511 98.893 391.071 98.8923 389.883C98.8903 386.713 96.4324 387.441 92.1971 391.869ZM36.7769 414.331C37.4603 415.471 38.8436 415.877 39.8534 415.229C42.5889 413.478 42.0791 412.253 38.6125 412.256C36.9217 412.257 36.0955 413.19 36.7769 414.331Z" fill="#4AB6D9"/>
<path fill-rule="evenodd" clip-rule="evenodd" d="M264.798 319.921C266.846 316.443 268 312.512 268 308.35C268 294.148 254.569 282.635 238 282.635C221.431 282.635 208 294.148 208 308.35C208 312.512 209.154 316.443 211.202 319.921C212.263 321.723 213.564 323.403 215.069 324.931L238 354.635L260.931 324.931C262.436 323.403 263.737 321.723 264.798 319.921ZM238 318.635C244.627 318.635 250 313.263 250 306.635C250 300.008 244.627 294.635 238 294.635C231.373 294.635 226 300.008 226 306.635C226 313.263 231.373 318.635 238 318.635Z" fill="#EB6092"/>
</svg>
