<svg width="92" height="92" viewBox="0 0 92 92" fill="none" xmlns="http://www.w3.org/2000/svg">
<path d="M43.7253 43.1753C43.2848 43.5952 42.3539 43.8434 40.9324 43.9197C39.5309 43.9961 37.7991 43.977 35.737 43.8624C33.6749 43.7479 32.5737 43.6907 32.4336 43.6907C31.0722 43.6907 30.0912 43.6716 29.4905 43.6334H26.4874C26.047 43.4998 25.6766 42.8795 25.3763 41.7724C25.076 40.6463 24.7757 39.0429 24.4753 36.9624C24.195 34.8628 24.0449 33.7462 24.0249 33.6126C23.9448 31.723 23.6245 30.4823 23.0639 29.8906C22.5033 29.2798 21.4822 28.9744 20.0007 28.9744H18.6793V42.9463C18.6393 43.1753 18.4291 43.3662 18.0487 43.5189C17.6683 43.6716 17.1177 43.767 16.397 43.8052C15.6963 43.8624 15.0656 43.8911 14.505 43.8911C13.9645 43.9102 13.2437 43.9102 12.3428 43.8911C11.4418 43.872 10.8913 43.8624 10.6911 43.8624H6.36659C3.92406 43.8624 2.08216 43.8815 0.840871 43.9197C0.56058 43.8052 0.28029 43.6716 0 43.5189V0.801664C0 0.267221 0.800829 0 2.40249 0H28.5896C33.1343 0.114523 36.5879 1.14523 38.9503 3.09213C41.3328 5.03903 42.524 7.78759 42.524 11.3378C42.524 15.9569 40.0815 19.3354 35.1964 21.4731C36.0974 21.7404 36.9082 22.1126 37.629 22.5897C38.3497 23.0669 38.9503 23.5823 39.4308 24.1358C39.9113 24.6702 40.3318 25.3192 40.6921 26.0827C41.0525 26.8462 41.3328 27.562 41.533 28.23C41.7332 28.8981 41.9034 29.6902 42.0435 30.6064C42.2037 31.5226 42.3138 32.3147 42.3739 32.9827C42.4339 33.6508 42.504 34.4524 42.5841 35.3877C42.6842 36.3039 42.7643 37.0292 42.8243 37.5637V40.0832C42.8844 40.3886 43.0646 40.818 43.3649 41.3716C43.6852 41.9251 43.8854 42.3355 43.9655 42.6027C43.9655 42.9844 43.8854 43.1753 43.7253 43.1753ZM18.4992 12.1395C18.4992 13.2847 18.5092 14.1341 18.5292 14.6876C18.5492 15.2412 18.6593 15.9665 18.8595 16.8636C19.0597 17.7607 19.36 18.4001 19.7605 18.7818C20.6013 18.7818 21.3921 18.6959 22.1329 18.5242C22.8937 18.3524 23.6245 18.0756 24.3252 17.6939C25.0259 17.3121 25.5765 16.749 25.9769 16.0046C26.3973 15.2412 26.6075 14.3345 26.6075 13.2847C26.6075 12.693 26.4974 12.1777 26.2772 11.7386C26.057 11.2806 25.7366 10.9179 25.3162 10.6507C24.8958 10.3835 24.4753 10.1735 24.0549 10.0208C23.6545 9.84901 23.154 9.73449 22.5534 9.67722C21.9727 9.60087 21.5123 9.55316 21.1719 9.53407C20.8316 9.51498 20.4211 9.50544 19.9406 9.50544H19.2199C18.9196 9.63905 18.7194 9.90627 18.6193 10.3071C18.5392 10.7079 18.4992 11.3187 18.4992 12.1395Z" fill="#F9C847"/>
<path d="M43.7253 90.6581C43.2848 91.078 42.3539 91.3261 40.9324 91.4025C39.5309 91.4788 37.7991 91.4597 35.737 91.3452C33.6749 91.2307 32.5737 91.1734 32.4336 91.1734C31.0722 91.1734 30.0912 91.1543 29.4905 91.1162H26.4874C26.047 90.9825 25.6766 90.3622 25.3763 89.2552C25.076 88.129 24.7757 86.5257 24.4753 84.4452C24.195 82.3456 24.0449 81.229 24.0249 81.0954C23.9448 79.2057 23.6245 77.9651 23.0639 77.3734C22.5033 76.7626 21.4822 76.4572 20.0007 76.4572H18.6793V90.429C18.6393 90.6581 18.4291 90.8489 18.0487 91.0016C17.6683 91.1543 17.1177 91.2498 16.397 91.2879C15.6963 91.3452 15.0656 91.3738 14.505 91.3738C13.9645 91.3929 13.2437 91.3929 12.3428 91.3738C11.4418 91.3547 10.8913 91.3452 10.6911 91.3452H6.36659C3.92406 91.3452 2.08216 91.3643 0.840871 91.4025C0.56058 91.2879 0.28029 91.1543 0 91.0016V48.2844C0 47.75 0.800829 47.4828 2.40249 47.4828H28.5896C33.1343 47.5973 36.5879 48.628 38.9503 50.5749C41.3328 52.5218 42.524 55.2703 42.524 58.8206C42.524 63.4397 40.0815 66.8181 35.1964 68.9559C36.0974 69.2231 36.9082 69.5953 37.629 70.0725C38.3497 70.5497 38.9503 71.065 39.4308 71.6186C39.9113 72.153 40.3318 72.802 40.6921 73.5655C41.0525 74.3289 41.3328 75.0447 41.533 75.7128C41.7332 76.3808 41.9034 77.1729 42.0435 78.0891C42.2037 79.0053 42.3138 79.7974 42.3739 80.4655C42.4339 81.1335 42.504 81.9352 42.5841 82.8705C42.6842 83.7867 42.7643 84.512 42.8243 85.0464V87.5659C42.8844 87.8713 43.0646 88.3008 43.3649 88.8543C43.6852 89.4079 43.8854 89.8182 43.9655 90.0854C43.9655 90.4672 43.8854 90.6581 43.7253 90.6581ZM18.4992 59.6222C18.4992 60.7675 18.5092 61.6168 18.5292 62.1704C18.5492 62.7239 18.6593 63.4492 18.8595 64.3463C19.0597 65.2434 19.36 65.8828 19.7605 66.2646C20.6013 66.2646 21.3921 66.1787 22.1329 66.0069C22.8937 65.8351 23.6245 65.5584 24.3252 65.1766C25.0259 64.7949 25.5765 64.2318 25.9769 63.4874C26.3973 62.7239 26.6075 61.8173 26.6075 60.7675C26.6075 60.1758 26.4974 59.6604 26.2772 59.2214C26.057 58.7633 25.7366 58.4007 25.3162 58.1334C24.8958 57.8662 24.4753 57.6562 24.0549 57.5036C23.6545 57.3318 23.154 57.2172 22.5534 57.16C21.9727 57.0836 21.5123 57.0359 21.1719 57.0168C20.8316 56.9977 20.4211 56.9882 19.9406 56.9882H19.2199C18.9196 57.1218 18.7194 57.389 18.6193 57.7899C18.5392 58.1907 18.4992 58.8015 18.4992 59.6222Z" fill="#ABCC51"/>
<path d="M91.3115 32.5074C91.3115 32.8494 91.3262 33.3815 91.3556 34.1036C91.385 34.8066 91.4071 35.4812 91.4218 36.1273C91.4365 36.7733 91.4439 37.4954 91.4439 38.2935C91.4586 39.0725 91.4365 39.7851 91.3777 40.4312C91.3335 41.0582 91.26 41.6568 91.157 42.2269C91.054 42.7779 90.8921 43.2054 90.6715 43.5095C90.4655 43.8135 90.208 43.9655 89.899 43.9655H79.8357C79.1295 43.2625 78.7764 40.6402 78.7764 36.0988C78.7764 34.4456 78.7837 32.4599 78.7984 30.1417C78.8131 27.8045 78.8205 26.1418 78.8205 25.1537V23.1585C78.8205 22.9875 78.8058 22.6645 78.7764 22.1894C78.7616 21.6954 78.7616 21.3153 78.7764 21.0493C78.1879 23.8046 77.4669 27.7474 76.6136 32.8779C75.7603 38.0084 75.1718 41.4383 74.8481 43.1674C74.701 43.6995 74.0242 43.9655 72.8178 43.9655H65.0054C64.0491 43.9655 63.49 43.6425 63.3282 42.9964L61.2096 31.0823C61.0183 29.8662 60.805 28.6025 60.5696 27.2914C60.3489 25.9803 60.0841 24.4886 59.7751 22.8165C59.4661 21.1443 59.2381 19.9092 59.091 19.1111C58.9144 25.1917 58.8261 29.8281 58.8261 33.0205V38.0369C58.8261 40.2792 58.8408 41.9703 58.8703 43.1104C58.782 43.5285 58.6202 43.7375 58.3848 43.7375H56.3103C55.4422 43.7375 54.1696 43.747 52.4924 43.766C50.8152 43.785 49.5425 43.7945 48.6745 43.7945C47.88 43.7945 47.4828 43.6235 47.4828 43.2815V0.983346C47.4828 0.812329 47.5122 0.669815 47.571 0.555804C47.6446 0.422791 47.7476 0.327782 47.88 0.270776C48.0271 0.194769 48.1669 0.137763 48.2993 0.0997597C48.4317 0.061756 48.6009 0.0427542 48.8069 0.0427542C49.0129 0.0237523 49.1821 0.0142514 49.3145 0.0142514C49.4469 -0.00475046 49.6161 -0.00475046 49.8221 0.0142514C50.028 0.0142514 50.1604 0.0142514 50.2193 0.0142514H52.8234C57.0165 0.0142514 59.9664 0.0902588 61.673 0.242274C63.3944 0.394288 64.7112 0.470296 65.6233 0.470296C65.9764 3.01654 66.5355 6.79791 67.3006 11.8144L68.9778 23.1585L72.5088 0.128262C72.5088 0.128262 72.5677 0.147264 72.6854 0.185268C72.8031 0.223272 72.8913 0.242274 72.9502 0.242274C74.5244 0.242274 76.849 0.213771 79.9239 0.156765C82.9989 0.0997597 85.3234 0.0712569 86.8977 0.0712569H90.1639C90.5758 0.128262 90.7818 0.660314 90.7818 1.66741C91.1055 20.0802 91.282 30.3602 91.3115 32.5074Z" fill="#F39A4F"/>
<path d="M69.0986 91.4483C66.6301 91.4483 64.3729 91.3079 62.327 91.0272C60.3033 90.7651 58.3463 90.2972 56.456 89.6234C54.588 88.9309 53.009 88.0418 51.7192 86.9563C50.4294 85.8707 49.3953 84.4576 48.6169 82.7169C47.8608 80.9763 47.4828 78.9642 47.4828 76.6808C47.4828 75.6701 47.8386 75.1648 48.5502 75.1648H63.7613C64.4507 75.1648 64.9622 75.3051 65.2958 75.5859C65.6294 75.8666 65.8295 76.2129 65.8962 76.6247C65.963 77.0364 66.0185 77.4482 66.063 77.86C66.1297 78.2717 66.2965 78.618 66.5634 78.8987C66.8525 79.1795 67.2973 79.3199 67.8977 79.3199C68.4537 79.3199 68.8984 79.1982 69.232 78.9549C69.5878 78.6928 69.8325 78.3092 69.9659 77.8038C70.1216 77.2985 70.2105 76.8586 70.2327 76.4843C70.2772 76.1099 70.2995 75.6327 70.2995 75.0525V74.8279C70.2772 73.4802 70.2105 70.8786 70.0993 67.023C70.0104 63.1673 69.9659 60.154 69.9659 57.9828V48.4373C69.9659 47.8945 70.4329 47.5763 71.3669 47.4828C72.0785 47.4828 73.146 47.4921 74.5693 47.5108C75.9925 47.5295 77.06 47.5389 77.7716 47.5389C78.839 47.5389 80.418 47.5295 82.5084 47.5108C84.5988 47.4921 86.1777 47.4828 87.2452 47.4828H90.3808C90.8923 47.4828 91.2481 47.7448 91.4483 48.2689C91.4038 48.6058 91.3816 49.0643 91.3816 49.6445C91.4038 50.2248 91.4038 50.6833 91.3816 51.0202V52.424C91.1592 58.17 91.048 63.2984 91.048 67.8091V76.6247C91.048 78.2717 90.7811 79.7971 90.2474 81.2009C89.7137 82.6046 89.002 83.8025 88.1125 84.7945C87.223 85.7865 86.1555 86.6849 84.9102 87.4897C83.687 88.2758 82.4194 88.9122 81.1074 89.3988C79.7953 89.8854 78.4054 90.2878 76.9377 90.606C75.4922 90.9242 74.1245 91.1395 72.8347 91.2518C71.5671 91.3828 70.3217 91.4483 69.0986 91.4483Z" fill="#4AB6D9"/>
<path fill-rule="evenodd" clip-rule="evenodd" d="M65.8891 58.4113C66.4894 57.3919 66.8276 56.2396 66.8276 55.0197C66.8276 50.8572 62.8908 47.4828 58.0345 47.4828C53.1782 47.4828 49.2414 50.8572 49.2414 55.0197C49.2414 56.2396 49.5795 57.3919 50.1799 58.4113C50.4909 58.9395 50.8722 59.4319 51.3134 59.8797L58.0345 68.5862L64.7556 59.8797C65.1967 59.4319 65.5781 58.9395 65.8891 58.4113ZM58.0345 58.0345C59.977 58.0345 61.5517 56.4598 61.5517 54.5172C61.5517 52.5747 59.977 51 58.0345 51C56.092 51 54.5172 52.5747 54.5172 54.5172C54.5172 56.4598 56.092 58.0345 58.0345 58.0345Z" fill="#EB6092"/>
</svg>
